<mxfile host="drawio.devya.sh" agent="Mozilla/5.0 (Macintosh; Intel Mac OS X 10_15_7) AppleWebKit/605.1.15 (KHTML, like Gecko) Version/18.1.1 Safari/605.1.15" version="26.0.16">
  <diagram name="Page-1" id="kM2V8uJpMsjcSWKsZWFB">
    <mxGraphModel dx="1314" dy="872" grid="1" gridSize="10" guides="1" tooltips="1" connect="1" arrows="1" fold="1" page="1" pageScale="1" pageWidth="850" pageHeight="1100" math="0" shadow="0">
      <root>
        <mxCell id="0" />
        <mxCell id="1" parent="0" />
        <mxCell id="54fZOx5SfElnGV4g0T8h-1" value="test diagram" style="rounded=0;whiteSpace=wrap;html=1;" vertex="1" parent="1">
          <mxGeometry x="90" y="60" width="120" height="60" as="geometry" />
        </mxCell>
        <mxCell id="54fZOx5SfElnGV4g0T8h-5" style="edgeStyle=orthogonalEdgeStyle;rounded=0;orthogonalLoop=1;jettySize=auto;html=1;" edge="1" parent="1" source="54fZOx5SfElnGV4g0T8h-2" target="54fZOx5SfElnGV4g0T8h-1">
          <mxGeometry relative="1" as="geometry" />
        </mxCell>
        <mxCell id="54fZOx5SfElnGV4g0T8h-2" value="djghksfkjg" style="rounded=0;whiteSpace=wrap;html=1;" vertex="1" parent="1">
          <mxGeometry x="305" y="200" width="120" height="60" as="geometry" />
        </mxCell>
        <mxCell id="54fZOx5SfElnGV4g0T8h-4" style="edgeStyle=orthogonalEdgeStyle;rounded=0;orthogonalLoop=1;jettySize=auto;html=1;" edge="1" parent="1" source="54fZOx5SfElnGV4g0T8h-3" target="54fZOx5SfElnGV4g0T8h-2">
          <mxGeometry relative="1" as="geometry" />
        </mxCell>
        <mxCell id="54fZOx5SfElnGV4g0T8h-3" value="Actor" style="shape=umlActor;verticalLabelPosition=bottom;verticalAlign=top;html=1;outlineConnect=0;" vertex="1" parent="1">
          <mxGeometry x="610" y="360" width="30" height="60" as="geometry" />
        </mxCell>
      </root>
    </mxGraphModel>
  </diagram>
</mxfile>
